<svg width="55" height="55" viewBox="0 0 55 55" fill="none" xmlns="http://www.w3.org/2000/svg">
<path d="M17.5261 22.9388L35.0309 53.938C32.5879 54.6495 30.0492 55 27.5 55C12.3213 55 0 42.6916 0 
27.5053C0 25.923 0.138079 24.3619 0.393004 22.8539L17.5261 22.9388ZM1.54017 20.6237L0.902858 
20.5175C3.9832 8.70828 14.7219 3.77534e-05 27.5 3.77534e-05C33.8943 -0.010582 40.0975 2.21958 45.0154 
6.29758C45.0154 6.29758 36.6135 20.9104 36.2099 20.6131C35.8275 20.3263 1.54017 20.6237 1.54017 
20.6237ZM55 27.4947C55 39.2933 47.5753 49.3609 37.1234 53.2477L28.1798 38.5287L46.5981 7.72063C51.9727 
12.9031 55.0106 20.0396 55 27.4947Z" fill="#E31C19"/>
</svg>
