<svg width="54" height="54" viewBox="0 0 54 54" fill="none" xmlns="http://www.w3.org/2000/svg">
<path d="M53.9967 40.2968C53.9967 47.667 48.0144 53.6425 40.6427 53.6425H13.9287C6.55341 53.6425 0.572311 47.667 0.572311 40.2968V13.5994C0.572311 6.22794 6.55341 0.25 13.9287 0.25H40.6427C48.0144 0.25 53.9967 6.22794 53.9967 13.5994V40.2968V40.2968Z" fill="#E71823"/>
<path d="M53.9967 39.4836C52.9027 40.7338 49.993 42.191 46.7084 42.191C41.6829 42.191 36.6219 39.2008 36.1122 33.6024H35.7275C33.1694 41.6877 27.4958 42.9636 24.395 42.9636C12.7036 42.9636 12.9792 27.9784 13.6727 21.0441C13.8356 19.4131 14.0414 13.0568 17.2304 13.0568C19.7812 13.0568 19.459 15.6808 19.361 18.158C19.1184 24.0931 17.4939 38.5126 25.9191 38.5126C36.1869 38.5126 34.9949 25.3947 36.1943 19.1498C36.6892 16.5808 40.829 16.647 40.6832 19.9078C40.5349 23.2678 40.3499 25.942 40.1858 29.5065C39.6443 41.1698 49.1109 41.4783 53.9967 38.3265V39.4836Z" fill="#FAFAFA"/>
</svg>
